# xmcd
#
# Track frame offsets:
#	150
#	11830
#	27050
#	44935
#	67438
#	88912
#	107126
#	130436
#	148444
#	163000
#	169014
#	190439
#	211204
#	222541
#	232562
#	253797
#	269760
#	282755
#	306604
#	323198
#
# Disc length: 4403 seconds
#
# Revision: 1
# Processed by: cddbd v1.5.1PL2 Copyright (c) Steve Scherf et al.
# Submitted via: dBpowerAMP V4.0
#
DISCID=4c113114
DTITLE=DJ Skee, Nu Jerzey Devil &The Game - U Know What It Is Vol. 4 - Ghost Unit
DYEAR=2005
DGENRE=Rap
TTITLE0=01 intro
TTITLE1=02 here we go again (feat. Dr. Dre)
TTITLE2=03 Mr. poato head
TTITLE3=04 crack music (feat. Kanye West) (Unreleased)
TTITLE4=04 kiss your ass goodbye (Remix) (feat. Beanie Sigel, Sheek, Fabolous and Jadakiss)
TTITLE5=06 old gunz (feat. rockstar)
TTITLE6=07 palm pilot (feat.Money Mike)
TTITLE7=08 they sayin (feat. G Malone)
TTITLE8=09 3 killas (feat. M.O.B.)
TTITLE9=10 twist it (feat. Olivia, Lloyd Banks and BBQ)
TTITLE10=11 Oliver part 2 
TTITLE11=12 u ain't crazy (feat. M.O.B.)
TTITLE12=13 it's on (feat. Rockstar)
TTITLE13=14 comin from the west coast (feat. M.O.B.& Rockstar)
TTITLE14=15 lyrical exercise part 2 (feat. Rockstar)
TTITLE15=16 stay strapped (feat. Techniec and Young Jeezy)
TTITLE16=17 don't cha (feat. Rockstarm Dior)
TTITLE17=18 don't body yourself (remix) (feat. Nas)
TTITLE18=19 walkin in the rain (feat M.O.B.)
TTITLE19=20 hurricane's in stores November (FUCK REEBOKS)
EXTD=Correctly labelled
EXTT0=
EXTT1=
EXTT2=
EXTT3=
EXTT4=
EXTT5=
EXTT6=
EXTT7=
EXTT8=
EXTT9=
EXTT10=
EXTT11=
EXTT12=
EXTT13=
EXTT14=
EXTT15=
EXTT16=
EXTT17=
EXTT18=
EXTT19=
PLAYORDER=
